# xmcd CD database file
#
# Track frame offsets:
#	150
#	16923
#	34715
#	49454
#	79218
#	97651
#	115474
#	133700
#	150955
#	166622
#	195194
#	214363
#	228905
#	260536
#
# Disc length: 3698 seconds
#
# Revision: 0
# Processed by: cddbd v1.5.1PL2 Copyright (c) Steve Scherf et al.
# Submitted via: CDex 1.51
#
DISCID=a90e700e
DTITLE=Shasta - No More Smoking!
DYEAR=2006
DGENRE=Country
TTITLE0=No More Smoking! (doesn't contain "fucking")
TTITLE1=Outside My Window
TTITLE2=It Won't Reach! (My Hose Won't Reach!)
TTITLE3=Cold New England Rain
TTITLE4=Silicon Heartland
TTITLE5=Modern Fixations
TTITLE6=No! No Doctor!
TTITLE7=Amerioca's Home Town
TTITLE8=Condo Commandos
TTITLE9=Stanbd Back! Drop Down
TTITLE10=America's Child
TTITLE11=Freudian Flowers
TTITLE12=Chasin' My Ghost
TTITLE13=No More Smoking! (contains "fucking")
EXTD=YEAR: 2006
EXTT0=
EXTT1=
EXTT2=
EXTT3=
EXTT4=
EXTT5=
EXTT6=
EXTT7=
EXTT8=
EXTT9=
EXTT10=
EXTT11=
EXTT12=
EXTT13=
PLAYORDER=
